<svg width="32" height="33" viewBox="0 0 32 33" fill="none" xmlns="http://www.w3.org/2000/svg">
<path d="M15.5 9.00001C17.7 9.00001 16.5 9.00001 20 9.00001C20 11.2 18.2 13 16 13C13.8 13 12 11.2 12 9.00001C14.5 9.00001 13.5 9.00001 15.5 9.00001ZM16 25C21.4 25 27.6 27.58 28 29H4C4.46 27.56 10.62 25 16 25ZM16 1.38813e-05C14.6956 1.38813e-05 7.26116 -5.17964e-05 6 1.38813e-05C6.70165 1.2279 7.14289 2.00007 8 3.50001C8 5.00007 8 7.45174 8 9.00001C8 13.42 11.58 17 16 17C20.42 17 24 13.42 24 9.00001C24 7.18184 24 5.00001 24 3.50001C24.7029 2.2699 25.5 1.00001 26 1.38813e-05C25 -6.89096e-06 16.8732 1.38813e-05 16 1.38813e-05ZM16 21C10.66 21 0 23.68 0 29V33H32V29C32 23.68 21.34 21 16 21Z" fill="white"/>
</svg>
