<svg xmlns="http://www.w3.org/2000/svg" viewBox="0 0 164.25 164.25"><defs><style>.cls-1{fill:#1e1e26;}.cls-2{fill:#fff;}</style></defs><g id="Capa_2" data-name="Capa 2"><g id="Capa_1-2" data-name="Capa 1"><rect class="cls-1" width="164.25" height="164.25" rx="3.87"/><path class="cls-2" d="M63.74,61.92l43.3-25v6.84a13.06,13.06,0,0,1-6.53,11.32l-43.31,25V73.24A13.07,13.07,0,0,1,63.74,61.92Z"/><path class="cls-2" d="M63.74,84.65,94.58,66.84v6.85A13.06,13.06,0,0,1,88.05,85L57.2,102.81V96A13.07,13.07,0,0,1,63.74,84.65Z"/><path class="cls-2" d="M63.74,107.13,82.12,96.51v6.85a13,13,0,0,1-6.53,11.31L57.2,125.29v-6.85A13,13,0,0,1,63.74,107.13Z"/></g></g></svg>