<svg width="650" height="578" viewBox="0 0 650 578" fill="none" xmlns="http://www.w3.org/2000/svg">
<path d="M321.748 310.002H125.864C120.694 309.996 115.737 307.937 112.082 304.277C108.426 300.617 106.369 295.655 106.364 290.479V188.723C106.369 183.547 108.426 178.584 112.082 174.924C115.737 171.264 120.694 169.205 125.864 169.2H321.748C326.918 169.205 331.874 171.264 335.53 174.924C339.186 178.584 341.242 183.547 341.248 188.723V290.479C341.242 295.655 339.186 300.617 335.53 304.277C331.874 307.937 326.918 309.996 321.748 310.002Z" fill="#F2F2F2"/>
<path d="M579.682 310.002H383.798C378.628 309.996 373.671 307.937 370.016 304.277C366.36 300.617 364.304 295.655 364.298 290.479V188.723C364.304 183.547 366.36 178.584 370.016 174.924C373.671 171.264 378.628 169.205 383.798 169.2H579.682C584.852 169.205 589.808 171.264 593.464 174.924C597.12 178.584 599.176 183.547 599.182 188.723V290.479C599.176 295.655 597.12 300.617 593.464 304.277C589.808 307.937 584.852 309.996 579.682 310.002Z" fill="#F2F2F2"/>
<path d="M341.248 479.202H106.364V349.64C106.369 344.464 108.426 339.501 112.082 335.841C115.737 332.181 120.694 330.123 125.864 330.117H321.748C326.918 330.123 331.874 332.181 335.53 335.841C339.186 339.501 341.242 344.464 341.248 349.64V479.202Z" fill="#F2F2F2"/>
<path d="M599.182 479.202H364.298V349.64C364.304 344.464 366.36 339.501 370.016 335.841C373.671 332.181 378.628 330.123 383.798 330.117H579.682C584.852 330.123 589.808 332.181 593.464 335.841C597.12 339.501 599.176 344.464 599.182 349.64V479.202Z" fill="#F2F2F2"/>
<path d="M579.682 149.085H383.798C378.628 149.079 373.671 147.02 370.016 143.36C366.36 139.7 364.304 134.738 364.298 129.562V19.523C364.304 14.347 366.36 9.38463 370.016 5.72462C373.671 2.06461 378.628 0.00584997 383.798 0H579.682C584.852 0.00584997 589.808 2.06461 593.464 5.72462C597.12 9.38463 599.176 14.347 599.182 19.523V129.562C599.176 134.738 597.12 139.7 593.464 143.36C589.808 147.02 584.852 149.079 579.682 149.085Z" fill="#F2F2F2"/>
<path d="M321.748 149.085H125.864C120.694 149.079 115.737 147.02 112.082 143.36C108.426 139.7 106.369 134.738 106.364 129.562V19.523C106.369 14.347 108.426 9.38463 112.082 5.72462C115.737 2.06461 120.694 0.00584997 125.864 0H321.748C326.918 0.00584997 331.874 2.06461 335.53 5.72462C339.186 9.38463 341.242 14.347 341.248 19.523V129.562C341.242 134.738 339.186 139.7 335.53 143.36C331.874 147.02 326.918 149.079 321.748 149.085Z" fill="#F2F2F2"/>
<path d="M592.682 485.118H117.591C114.613 485.118 111.758 483.933 109.652 481.825C107.546 479.717 106.364 476.858 106.364 473.877C106.364 470.896 107.546 468.037 109.652 465.929C111.758 463.821 114.613 462.637 117.591 462.637H592.682C595.66 462.637 598.515 463.821 600.621 465.929C602.726 468.037 603.909 470.896 603.909 473.877C603.909 476.858 602.726 479.717 600.621 481.825C598.515 483.933 595.66 485.118 592.682 485.118Z" fill="#313139"/>
<path d="M334.455 473.286H140.636V428.323C140.636 402.591 150.846 377.913 169.02 359.717C187.194 341.522 211.844 331.3 237.545 331.3C263.247 331.3 287.896 341.522 306.07 359.717C324.244 377.913 334.455 402.591 334.455 428.323V473.286Z" fill="#313139"/>
<path d="M566.091 473.286H372.273V428.323C372.273 402.591 382.483 377.913 400.657 359.717C418.831 341.522 443.48 331.3 469.182 331.3C494.884 331.3 519.533 341.522 537.707 359.717C555.881 377.913 566.091 402.591 566.091 428.323V473.286Z" fill="#313139"/>
<path d="M460.318 576.817H475.682V477.427H460.318V576.817Z" fill="#313139"/>
<path d="M416.591 576.276C416.591 577.938 439.872 576.919 468.591 576.919C497.31 576.919 520.591 577.938 520.591 576.276C520.591 574.614 497.31 561.435 468.591 561.435C439.872 561.435 416.591 574.614 416.591 576.276Z" fill="#313139"/>
<path d="M228.682 576.817H244.045V477.427H228.682V576.817Z" fill="#313139"/>
<path d="M184.955 576.276C184.955 577.938 208.236 576.919 236.955 576.919C265.673 576.919 288.955 577.938 288.955 576.276C288.955 574.614 265.673 561.435 236.955 561.435C208.236 561.435 184.955 574.614 184.955 576.276Z" fill="#313139"/>
<path d="M305.415 563.268H319.904L326.796 507.316H305.413L305.415 563.268Z" fill="#A0616A"/>
<path d="M347.847 576.736L302.311 576.738L302.31 559.124L330.253 559.122C332.563 559.122 334.851 559.578 336.986 560.463C339.12 561.348 341.06 562.645 342.694 564.281C344.327 565.916 345.623 567.858 346.508 569.995C347.392 572.132 347.847 574.423 347.847 576.736L347.847 576.736Z" fill="#2F2E41"/>
<path d="M328.033 555.172L341.856 550.829L331.702 495.377L311.299 501.787L328.033 555.172Z" fill="#A0616A"/>
<path d="M372.545 555.304L329.098 568.954L323.83 552.148L350.491 543.772C354.943 542.373 359.768 542.802 363.904 544.965C368.04 547.127 371.148 550.846 372.545 555.304Z" fill="#2F2E41"/>
<path d="M318.339 529.419L291.834 459.762C285.888 461.16 236.021 472.208 219.319 454.404C213.595 448.302 212.479 439.461 216.001 428.127L225.748 415.864L226.051 415.88C229.736 416.074 316.384 420.937 322.323 447.104C327.331 469.164 336.478 510.294 339.161 522.374C339.433 523.626 339.247 524.934 338.637 526.06C338.026 527.185 337.032 528.054 335.836 528.508L325.176 532.509C324.583 532.733 323.953 532.848 323.319 532.848C322.24 532.847 321.186 532.52 320.297 531.908C319.408 531.296 318.725 530.428 318.339 529.419Z" fill="#2F2E41"/>
<path d="M302.975 537.702L276.471 468.045C270.524 469.443 220.657 480.489 203.955 462.687C198.232 456.585 197.115 447.744 200.637 436.41L210.385 424.147L210.687 424.163C214.373 424.357 301.02 429.219 306.96 455.386C311.968 477.447 321.114 518.576 323.797 530.657C324.07 531.908 323.883 533.216 323.273 534.342C322.663 535.468 321.669 536.337 320.472 536.79L309.813 540.792C309.219 541.015 308.589 541.13 307.955 541.13C306.876 541.13 305.822 540.802 304.933 540.19C304.044 539.578 303.362 538.71 302.975 537.702Z" fill="#2F2E41"/>
<path d="M279.134 402.558C275.206 402.556 271.345 401.534 267.93 399.59C264.515 397.646 261.663 394.848 259.652 391.469L251.235 377.193L271.242 366.244L279.737 377.906L337.379 371.826C337.66 371.318 337.975 370.83 338.323 370.366C339.43 368.909 340.83 367.701 342.433 366.822C344.036 365.942 345.806 365.411 347.628 365.262C349.458 365.104 351.301 365.341 353.032 365.956C354.763 366.571 356.343 367.549 357.665 368.826C359.785 370.861 361.155 373.554 361.554 376.467C361.953 379.38 361.357 382.343 359.863 384.874C358.928 386.451 357.671 387.813 356.174 388.87C354.677 389.927 352.973 390.655 351.175 391.007C349.377 391.359 347.526 391.327 345.741 390.913C343.956 390.498 342.279 389.711 340.82 388.602C340.482 388.343 340.157 388.067 339.847 387.774L284.639 401.867C282.84 402.326 280.991 402.558 279.134 402.558Z" fill="#A0616A"/>
<path d="M200.263 440.088C199.465 439.512 198.842 438.727 198.463 437.819C198.083 436.911 197.962 435.915 198.113 434.942C201.402 413.239 197.618 382.148 193.865 359.888C193.097 355.371 193.396 350.738 194.738 346.357C196.08 341.977 198.428 337.973 201.594 334.665C204.761 331.357 208.656 328.837 212.97 327.307C217.284 325.778 221.895 325.281 226.435 325.857C230.385 326.379 234.298 327.151 238.15 328.169C244.549 329.782 250.21 333.528 254.201 338.789C258.192 344.05 260.276 350.515 260.111 357.119C259.55 378.6 263.906 405.401 265.805 415.927C265.935 416.65 265.914 417.392 265.745 418.106C265.575 418.821 265.26 419.493 264.82 420.081C264.388 420.662 263.84 421.147 263.21 421.503C262.58 421.86 261.882 422.08 261.162 422.151C240.116 424.302 217.42 434.577 205.765 440.511C205.015 440.898 204.185 441.101 203.342 441.103C202.234 441.1 201.156 440.744 200.263 440.088Z" fill="#FC2C5E"/>
<path d="M257.074 384.108C256.423 383.852 255.83 383.47 255.328 382.983C254.826 382.496 254.426 381.914 254.15 381.271L242.413 354.126C241.702 352.486 241.322 350.721 241.292 348.934C241.263 347.146 241.586 345.37 242.242 343.708C242.899 342.045 243.876 340.528 245.119 339.244C246.361 337.96 247.844 336.933 249.483 336.223C251.121 335.513 252.884 335.133 254.669 335.105C256.455 335.078 258.228 335.402 259.888 336.061C261.548 336.72 263.063 337.7 264.344 338.944C265.626 340.189 266.65 341.675 267.358 343.316L279.095 370.462C279.654 371.758 279.676 373.223 279.157 374.535C278.638 375.848 277.621 376.901 276.328 377.463L261.144 384.043C260.503 384.323 259.814 384.473 259.115 384.484C258.416 384.495 257.723 384.367 257.074 384.108H257.074Z" fill="#FC2C5E"/>
<path d="M224.275 316.622C240.306 316.622 253.302 303.611 253.302 287.561C253.302 271.511 240.306 258.5 224.275 258.5C208.244 258.5 195.248 271.511 195.248 287.561C195.248 303.611 208.244 316.622 224.275 316.622Z" fill="#A0616A"/>
<path d="M206.734 313.38C206.323 313.855 205.82 314.243 205.257 314.52C204.693 314.798 204.08 314.959 203.453 314.995C202.826 315.031 202.198 314.941 201.607 314.73C201.015 314.519 200.472 314.191 200.009 313.766C193.537 308.521 188.403 301.809 185.033 294.186C181.259 285.18 180.706 274.191 185.001 265.749C188.631 258.614 195.149 254.071 201.655 250.359C204.149 248.786 206.882 247.629 209.748 246.935C211.195 246.606 212.695 246.584 214.151 246.871C215.607 247.157 216.987 247.746 218.202 248.599C219.492 249.581 220.49 250.895 221.089 252.402C221.688 253.909 221.866 255.55 221.604 257.15C224.58 253.225 228.592 250.21 233.188 248.446C236.008 247.231 239.159 247.02 242.115 247.847C246.294 249.244 249.386 253.468 251.107 258.007C252.499 261.481 253.009 265.247 252.591 268.968C252.409 270.744 251.868 272.465 251 274.025C250.133 275.586 248.958 276.953 247.546 278.044C244.138 280.399 239.747 280.16 235.783 279.118C231.819 278.076 227.973 276.309 223.94 275.816C219.907 275.324 215.437 276.392 213.035 279.993C211.343 282.529 210.944 285.87 210.598 289.054L208.803 305.618C208.676 307.987 208.166 310.321 207.293 312.527C207.145 312.835 206.957 313.122 206.734 313.38Z" fill="#2F2E41"/>
<path d="M268.782 432.902C267.056 432.299 265.477 431.338 264.146 430.083C262.816 428.827 261.764 427.306 261.06 425.616C260.898 425.222 260.756 424.82 260.636 424.411L198.801 406.789C196.143 406.021 193.804 404.415 192.131 402.211C190.457 400.006 189.538 397.32 189.51 394.551L189.359 370.648L212.152 371.259L213.637 385.617L266.513 409.384C267.01 409.086 267.528 408.823 268.063 408.597H268.063C270.011 407.78 272.128 407.449 274.232 407.634C276.335 407.819 278.363 408.514 280.138 409.658C281.914 410.803 283.385 412.363 284.423 414.204C285.462 416.045 286.038 418.112 286.1 420.225C286.163 422.339 285.71 424.436 284.782 426.335C283.854 428.235 282.479 429.879 280.774 431.127C279.069 432.375 277.086 433.189 274.997 433.498C272.908 433.808 270.775 433.603 268.782 432.902V432.902Z" fill="#A0616A"/>
<path d="M189.714 381.142C189.25 380.619 188.894 380.009 188.666 379.347C188.439 378.686 188.345 377.986 188.39 377.287L190.203 347.763C190.31 345.978 190.767 344.231 191.549 342.622C192.331 341.014 193.422 339.575 194.759 338.389C196.097 337.203 197.655 336.293 199.344 335.711C201.033 335.128 202.821 334.885 204.604 334.995C206.388 335.104 208.132 335.565 209.737 336.351C211.342 337.136 212.777 338.231 213.959 339.572C215.142 340.913 216.048 342.474 216.627 344.167C217.206 345.859 217.446 347.649 217.333 349.434L215.521 378.959C215.432 380.367 214.789 381.684 213.733 382.618C212.677 383.553 211.293 384.031 209.886 383.946L193.372 382.929C192.674 382.889 191.992 382.71 191.364 382.403C190.736 382.096 190.175 381.667 189.714 381.142Z" fill="#FC2C5E"/>
<path d="M351.08 395.785H334.374C333.838 395.787 333.321 395.588 332.924 395.227C332.527 394.867 332.279 394.371 332.228 393.836L328.885 359.521H356.57L353.226 393.836C353.176 394.37 352.928 394.867 352.531 395.227C352.134 395.588 351.616 395.787 351.08 395.785Z" fill="#FC2C5E"/>
<path d="M356.526 363.838H328.929C328.357 363.838 327.809 363.61 327.405 363.205C327.001 362.801 326.773 362.252 326.773 361.68V356.499C326.773 355.927 327.001 355.378 327.405 354.974C327.809 354.569 328.357 354.341 328.929 354.341H356.526C357.097 354.341 357.645 354.569 358.05 354.974C358.454 355.378 358.681 355.927 358.682 356.499V361.68C358.681 362.252 358.454 362.801 358.05 363.205C357.645 363.61 357.097 363.838 356.526 363.838Z" fill="#3F3D56"/>
<path d="M99.895 365.022H66.1975C65.2045 365.022 64.2522 365.416 63.55 366.119C62.8478 366.822 62.4533 367.776 62.4533 368.77V439.993H68.0696V374.393C68.0696 373.399 68.4641 372.445 69.1662 371.742C69.8684 371.039 70.8208 370.644 71.8138 370.644H96.1508C97.1438 370.644 98.0962 371.039 98.7984 371.742C99.5005 372.445 99.895 373.399 99.895 374.393V439.993H105.511V368.77C105.511 367.776 105.117 366.822 104.415 366.119C103.712 365.416 102.76 365.022 101.767 365.022H99.895Z" fill="#3F3D56"/>
<path d="M122.36 576.817H41.8605C37.6416 576.812 33.5969 575.132 30.6137 572.145C27.6305 569.159 25.9525 565.109 25.9478 560.885V442.805C25.9525 438.581 27.6305 434.531 30.6137 431.545C33.5969 428.558 37.6416 426.878 41.8605 426.873H122.36C126.579 426.878 130.624 428.558 133.607 431.545C136.59 434.531 138.268 438.581 138.273 442.805V560.885C138.268 565.109 136.59 569.159 133.607 572.145C130.624 575.132 126.579 576.812 122.36 576.817Z" fill="#3F3D56"/>
<path d="M27.4144 525.137C21.9426 525.137 18.99 513.791 18.99 503.114C18.99 492.438 21.9425 481.091 27.4144 481.091C32.8862 481.091 35.8388 492.438 35.8388 503.114C35.8388 513.791 32.8862 525.137 27.4144 525.137ZM27.4144 482.966C24.3151 482.966 20.8621 491.241 20.8621 503.114C20.8621 514.988 24.3151 523.263 27.4144 523.263C30.5136 523.263 33.9666 514.988 33.9666 503.114C33.9666 491.241 30.5136 482.966 27.4144 482.966Z" fill="#3F3D56"/>
<path d="M116.744 506.531H101.767C100.526 506.529 99.3367 506.035 98.4593 505.157C97.5819 504.278 97.0884 503.087 97.0869 501.845V490.599C97.0884 489.357 97.5819 488.166 98.4593 487.288C99.3367 486.409 100.526 485.915 101.767 485.913H116.744C117.985 485.915 119.174 486.409 120.052 487.288C120.929 488.166 121.422 489.357 121.424 490.599V501.845C121.422 503.087 120.929 504.278 120.052 505.157C119.174 506.035 117.985 506.529 116.744 506.531Z" fill="white"/>
<path d="M121.424 568.877H35.8388C35.3423 568.877 34.8661 568.679 34.515 568.328C34.1639 567.976 33.9667 567.499 33.9667 567.002V436.245C33.9667 435.748 34.1639 435.271 34.515 434.919C34.8661 434.568 35.3423 434.37 35.8388 434.37H121.424C121.92 434.37 122.397 434.568 122.748 434.919C123.099 435.271 123.296 435.748 123.296 436.245C123.296 436.742 123.099 437.219 122.748 437.57C122.397 437.922 121.92 438.119 121.424 438.119H37.7108V565.128H121.424C121.92 565.129 122.395 565.327 122.745 565.679C123.095 566.03 123.291 566.506 123.291 567.002C123.291 567.499 123.095 567.975 122.745 568.326C122.395 568.677 121.92 568.875 121.424 568.877Z" fill="white"/>
<path d="M572.863 218.251C571.762 217.3 570.486 216.574 569.107 216.113C566.022 215.157 562.782 214.805 559.564 215.075C557.204 215.208 554.858 215.535 552.551 216.053L444.81 246.57C442.774 247.142 440.774 247.809 438.807 248.57C431.863 245.849 412.228 237.977 410.076 235.153L401.631 237.625L415.709 258.665C415.353 258.821 415.052 259.081 414.846 259.41C414.64 259.74 414.538 260.125 414.554 260.513C414.569 260.902 414.702 261.277 414.934 261.589C415.166 261.901 415.487 262.135 415.855 262.262C432.086 267.842 456.599 260.433 456.599 260.433L550.741 233.505C550.741 233.505 579.156 223.882 572.863 218.251Z" fill="white"/>
<path d="M519.478 235.124L458.29 251.665L454.675 258.904L519.478 235.124Z" fill="#F2F2F2"/>
<path d="M648.818 578H1.18182C0.86838 578 0.567798 577.875 0.346164 577.653C0.12453 577.432 0 577.131 0 576.817C0 576.503 0.12453 576.202 0.346164 575.98C0.567798 575.758 0.86838 575.634 1.18182 575.634H648.818C649.132 575.634 649.432 575.758 649.654 575.98C649.875 576.202 650 576.503 650 576.817C650 577.131 649.875 577.432 649.654 577.653C649.432 577.875 649.132 578 648.818 578Z" fill="#313139"/>
<path d="M518.227 103.531C515.797 103.531 513.392 104.032 511.164 105.005C508.936 105.978 506.933 107.4 505.28 109.184C503.309 108.399 501.176 108.11 499.068 108.341C496.96 108.573 494.94 109.318 493.186 110.511C491.432 111.704 489.996 113.31 489.005 115.187C488.014 117.064 487.497 119.156 487.5 121.279H535.955C535.955 116.572 534.087 112.058 530.762 108.73C527.438 105.401 522.929 103.531 518.227 103.531Z" fill="white"/>
<path d="M258.227 45.5537C255.797 45.5531 253.392 46.0549 251.164 47.0276C248.936 48.0003 246.933 49.423 245.28 51.2066C243.309 50.4219 241.176 50.1326 239.068 50.3639C236.96 50.5953 234.94 51.3402 233.186 52.5336C231.432 53.727 229.996 55.3324 229.005 57.2096C228.014 59.0868 227.497 61.1786 227.5 63.302H275.955C275.955 58.5948 274.087 54.0805 270.762 50.7521C267.438 47.4236 262.929 45.5537 258.227 45.5537Z" fill="white"/>
<path d="M177.864 200.555C175.433 200.554 173.029 201.056 170.801 202.029C168.573 203.001 166.57 204.424 164.916 206.208C162.945 205.423 160.813 205.134 158.704 205.365C156.596 205.596 154.577 206.341 152.822 207.535C151.068 208.728 149.633 210.333 148.641 212.211C147.65 214.088 147.133 216.18 147.136 218.303H195.591C195.591 215.972 195.132 213.664 194.242 211.511C193.351 209.358 192.045 207.401 190.399 205.753C188.753 204.105 186.798 202.798 184.648 201.906C182.497 201.014 180.192 200.555 177.864 200.555Z" fill="white"/>
</svg>
