<svg width="29" height="21" viewBox="0 0 29 21" fill="none" xmlns="http://www.w3.org/2000/svg">
<path d="M14.5001 3.39583C19.3955 3.39583 23.7613 6.14708 25.8926 10.5C23.7613 14.8529 19.4084 17.6042 14.5001 17.6042C9.59175 17.6042 5.23883 14.8529 3.10758 10.5C5.23883 6.14708 9.60466 3.39583 14.5001 3.39583ZM14.5001 0.8125C8.04175 0.8125 2.52633 4.82958 0.291748 10.5C2.52633 16.1704 8.04175 20.1875 14.5001 20.1875C20.9584 20.1875 26.4738 16.1704 28.7084 10.5C26.4738 4.82958 20.9584 0.8125 14.5001 0.8125ZM14.5001 7.27083C16.2826 7.27083 17.7292 8.7175 17.7292 10.5C17.7292 12.2825 16.2826 13.7292 14.5001 13.7292C12.7176 13.7292 11.2709 12.2825 11.2709 10.5C11.2709 8.7175 12.7176 7.27083 14.5001 7.27083ZM14.5001 4.6875C11.2967 4.6875 8.68758 7.29667 8.68758 10.5C8.68758 13.7033 11.2967 16.3125 14.5001 16.3125C17.7034 16.3125 20.3126 13.7033 20.3126 10.5C20.3126 7.29667 17.7034 4.6875 14.5001 4.6875Z" fill="white"/>
</svg>
