<svg width="37" height="40" viewBox="0 0 37 40" fill="none" xmlns="http://www.w3.org/2000/svg">
<path d="M32.1915 21.96C32.266 21.32 32.3219 20.68 32.3219 20C32.3219 19.32 32.266 18.68 32.1915 18.04L36.1217 14.74C36.4756 14.44 36.5688 13.9 36.3452 13.46L32.6199 6.54C32.4523 6.22 32.1356 6.04 31.8003 6.04C31.6886 6.04 31.5768 6.06 31.4837 6.1L26.8457 8.1C25.8771 7.3 24.834 6.64 23.6978 6.14L22.99 0.84C22.9341 0.36 22.5429 0 22.0773 0H14.6266C14.161 0 13.7698 0.36 13.7139 0.84L13.0061 6.14C11.8699 6.64 10.8268 7.32 9.8582 8.1L5.22018 6.1C5.10842 6.06 4.99666 6.04 4.8849 6.04C4.56825 6.04 4.2516 6.22 4.08396 6.54L0.358633 13.46C0.116487 13.9 0.228247 14.44 0.582153 14.74L4.51237 18.04C4.43786 18.68 4.38198 19.34 4.38198 20C4.38198 20.66 4.43786 21.32 4.51237 21.96L0.582153 25.26C0.228247 25.56 0.135114 26.1 0.358633 26.54L4.08396 33.46C4.2516 33.78 4.56825 33.96 4.90353 33.96C5.01529 33.96 5.12705 33.94 5.22018 33.9L9.8582 31.9C10.8268 32.7 11.8699 33.36 13.0061 33.86L13.7139 39.16C13.7698 39.64 14.161 40 14.6266 40H22.0773C22.5429 40 22.9341 39.64 22.99 39.16L23.6978 33.86C24.834 33.36 25.8771 32.68 26.8457 31.9L31.4837 33.9C31.5955 33.94 31.7072 33.96 31.819 33.96C32.1356 33.96 32.4523 33.78 32.6199 33.46L36.3452 26.54C36.5688 26.1 36.4756 25.56 36.1217 25.26L32.1915 21.96ZM28.5034 18.54C28.5779 19.16 28.5966 19.58 28.5966 20C28.5966 20.42 28.5593 20.86 28.5034 21.46L28.2427 23.72L29.9004 25.12L31.9121 26.8L30.6082 29.22L28.2427 28.2L26.3055 27.36L24.6291 28.72C23.8282 29.36 23.0645 29.84 22.3008 30.18L20.3264 31.04L20.0283 33.3L19.6558 36H17.0481L16.6942 33.3L16.3961 31.04L14.4217 30.18C13.6208 29.82 12.8757 29.36 12.1306 28.76L10.4356 27.36L8.46121 28.22L6.09563 29.24L4.79177 26.82L6.80344 25.14L8.46121 23.74L8.20044 21.48C8.14456 20.86 8.1073 20.4 8.1073 20C8.1073 19.6 8.14456 19.14 8.20044 18.54L8.46121 16.28L6.80344 14.88L4.79177 13.2L6.09563 10.78L8.46121 11.8L10.3984 12.64L12.0748 11.28C12.8757 10.64 13.6394 10.16 14.4031 9.82L16.3775 8.96L16.6755 6.7L17.0481 4H19.6372L19.9911 6.7L20.2891 8.96L22.2635 9.82C23.0645 10.18 23.8095 10.64 24.5546 11.24L26.2496 12.64L28.224 11.78L30.5896 10.76L31.8935 13.18L29.9004 14.88L28.2427 16.28L28.5034 18.54ZM18.3519 12C14.2355 12 10.9013 15.58 10.9013 20C10.9013 24.42 14.2355 28 18.3519 28C22.4684 28 25.8026 24.42 25.8026 20C25.8026 15.58 22.4684 12 18.3519 12ZM18.3519 24C16.303 24 14.6266 22.2 14.6266 20C14.6266 17.8 16.303 16 18.3519 16C20.4009 16 22.0773 17.8 22.0773 20C22.0773 22.2 20.4009 24 18.3519 24Z" fill="white"/>
</svg>
