<svg width="38" height="32" viewBox="0 0 38 32" fill="none" xmlns="http://www.w3.org/2000/svg">
<path d="M34.6071 0H4.4506C2.40168 0 0.743907 1.8 0.743907 4V12C2.79283 12 4.4506 13.8 4.4506 16C4.4506 18.2 2.79283 20 0.725281 20V28C0.725281 30.2 2.40168 32 4.4506 32H34.2532C36.3021 32 37.9785 30.2 37.9785 28V4C37.9785 1.8 36.4697 0 34.6071 0ZM34.2532 28H4.4506V22.92C6.66717 21.54 8.17592 18.94 8.17592 16C8.17592 13.04 6.6858 10.46 4.46923 9.08L4.4506 4H34.2532V28ZM13.5218 23.32L10.4297 17.56L12.162 17.06L14.509 19.04L18.9607 17.76L14.4903 9.44L17.0981 8.68L24.5673 16.16L29.1122 14.86C30.0622 14.58 31.0494 15.2 31.3102 16.22C31.5523 17.24 30.9935 18.3 30.0249 18.6L13.5218 23.32Z" fill="white"/>
</svg>
