<svg xmlns="http://www.w3.org/2000/svg" viewBox="0 0 49.84 88.37"><defs><style>.cls-1{fill:#fff;}</style></defs><g id="Capa_2" data-name="Capa 2"><g id="Capa_1-2" data-name="Capa 1"><path class="cls-1" d="M6.53,25,49.84,0V6.85a13.06,13.06,0,0,1-6.53,11.31L0,43.16V36.32A13.08,13.08,0,0,1,6.53,25Z"/><path class="cls-1" d="M6.53,47.73,37.38,29.92v6.85a13.05,13.05,0,0,1-6.53,11.31L0,65.89V59.05A13.08,13.08,0,0,1,6.53,47.73Z"/><path class="cls-1" d="M6.53,70.21,24.92,59.59v6.85a13.05,13.05,0,0,1-6.53,11.31L0,88.37V81.52A13.06,13.06,0,0,1,6.53,70.21Z"/></g></g></svg>