<svg xmlns="http://www.w3.org/2000/svg" viewBox="0 0 59.27 105.09"><defs><style>.cls-1{fill:#fff;}.cls-2{fill:#fc2c5e;}</style></defs><g id="Capa_2" data-name="Capa 2"><g id="Capa_1-2" data-name="Capa 1"><path class="cls-1" d="M7.77,29.74,59.27,0V8.14A15.52,15.52,0,0,1,51.5,21.59L0,51.33V43.19A15.52,15.52,0,0,1,7.77,29.74Z"/><path class="cls-2" d="M7.77,56.76,44.45,35.58v8.15a15.54,15.54,0,0,1-7.76,13.45L0,78.36V70.22A15.55,15.55,0,0,1,7.77,56.76Z"/><path class="cls-2" d="M7.77,83.49,29.63,70.87V79a15.53,15.53,0,0,1-7.76,13.45L0,105.09V97A15.55,15.55,0,0,1,7.77,83.49Z"/></g></g></svg>