<svg xmlns="http://www.w3.org/2000/svg" viewBox="0 0 164.25 164.25"><defs><style>.cls-1{fill:#fc2c5e;}.cls-2{fill:#fff;}</style></defs><g id="Capa_2" data-name="Capa 2"><g id="Capa_1-2" data-name="Capa 1"><rect class="cls-1" width="164.25" height="164.25" rx="3.5"/><path class="cls-2" d="M67.21,62.94l43.3-25v6.85A13.06,13.06,0,0,1,104,56.1l-43.31,25V74.26A13.07,13.07,0,0,1,67.21,62.94Z"/><path class="cls-2" d="M67.21,85.67,98.05,67.86v6.85A13.05,13.05,0,0,1,91.52,86L60.67,103.83V97A13.07,13.07,0,0,1,67.21,85.67Z"/><path class="cls-2" d="M67.21,108.15,85.59,97.53v6.85a13.05,13.05,0,0,1-6.53,11.31L60.67,126.31v-6.85A13.05,13.05,0,0,1,67.21,108.15Z"/></g></g></svg>